<svg width="24" height="24" viewBox="0 0 24 24" fill="none" xmlns="http://www.w3.org/2000/svg">
<path d="M2.85714 0C1.28599 0 0 1.28599 0 2.85714V21.1429C0 22.714 1.28599 24 2.85714 24H21.1429C22.714 24 24 22.714 24 21.1429V2.85714C24 1.28599 22.714 0 21.1429 0H2.85714ZM8 5.71429H13.7143C16.9949 5.71429 19.638 8.49234 19.4152 11.8192C19.2123 14.8535 16.5528 17.1429 13.5123 17.1429H10.2857V16C10.2857 15.3686 10.7971 14.8571 11.4286 14.8571H13.5949C15.3372 14.8571 16.8921 13.608 17.1138 11.8795C17.3824 9.78861 15.7531 8 13.7143 8H5.71429C5.71429 6.73771 6.73771 5.71429 8 5.71429ZM8 10.2857H13.7143C14.3457 10.2857 14.8571 10.7971 14.8571 11.4286C14.8571 12.06 14.3457 12.5714 13.7143 12.5714H9.14286C8.51143 12.5714 8 13.0829 8 13.7143V19.4286C6.73771 19.4286 5.71429 18.4051 5.71429 17.1429V12.5714C5.71429 11.3091 6.73771 10.2857 8 10.2857Z" fill="#858585"/>
</svg>
