<svg width="27" height="22" viewBox="0 0 27 22" fill="none" xmlns="http://www.w3.org/2000/svg">
<path d="M5.76703 0.000158974C5.52362 0.0043443 5.28873 0.0920937 5.10047 0.249175C1.99484 2.76498 0 6.6522 0 11.0009C0 15.3496 1.99484 19.2368 5.10047 21.7526C5.2112 21.8445 5.33876 21.9132 5.47574 21.9545C5.61273 21.9959 5.75642 22.0092 5.8985 21.9937C6.04058 21.9782 6.17821 21.9341 6.30344 21.8641C6.42866 21.794 6.53898 21.6994 6.62801 21.5856C6.71704 21.4719 6.783 21.3413 6.82208 21.2014C6.86116 21.0615 6.87258 20.9151 6.85567 20.7707C6.83877 20.6263 6.79387 20.4868 6.72359 20.3602C6.65332 20.2335 6.55905 20.1224 6.44625 20.0331C3.83436 17.9173 2.16 14.6669 2.16 11.0009C2.16 7.33489 3.83436 4.08451 6.44625 1.96868C6.62572 1.8274 6.75691 1.63219 6.82122 1.41076C6.88552 1.18932 6.87967 0.952896 6.8045 0.735032C6.72933 0.517168 6.58865 0.328928 6.40243 0.197019C6.2162 0.0651106 5.99389 -0.00376699 5.76703 0.000158974ZM21.2003 0.000158974C20.9762 0.003201 20.7586 0.0770902 20.5777 0.211589C20.3967 0.346087 20.2613 0.534535 20.1903 0.750822C20.1192 0.96711 20.1161 1.20053 20.1812 1.41873C20.2463 1.63694 20.3765 1.82913 20.5538 1.96868C23.1656 4.08451 24.84 7.33489 24.84 11.0009C24.84 14.6669 23.1656 17.9173 20.5538 20.0331C20.441 20.1224 20.3467 20.2335 20.2764 20.3602C20.2061 20.4868 20.1612 20.6263 20.1443 20.7707C20.1274 20.9151 20.1388 21.0615 20.1779 21.2014C20.217 21.3413 20.283 21.4719 20.372 21.5856C20.461 21.6994 20.5713 21.794 20.6966 21.8641C20.8218 21.9341 20.9594 21.9782 21.1015 21.9937C21.2436 22.0092 21.3873 21.9959 21.5243 21.9545C21.6612 21.9132 21.7888 21.8445 21.8995 21.7526C25.0052 19.2368 27 15.3496 27 11.0009C27 6.6522 25.0052 2.76498 21.8995 0.249175C21.7026 0.0848721 21.4549 -0.00332458 21.2003 0.000158974ZM8.39742 2.83165C8.15424 2.82742 7.91678 2.90684 7.72348 3.05705C5.33788 4.85691 3.78 7.74818 3.78 11.0009C3.78 14.6551 5.73984 17.8537 8.64422 19.563C8.767 19.6353 8.90258 19.6823 9.04321 19.7013C9.18384 19.7203 9.32676 19.7109 9.46383 19.6736C9.60089 19.6364 9.72941 19.5721 9.84204 19.4843C9.95467 19.3965 10.0492 19.287 10.1203 19.1621C10.1913 19.0371 10.2375 18.8992 10.2562 18.756C10.2748 18.6129 10.2656 18.4675 10.229 18.328C10.1924 18.1885 10.1292 18.0577 10.043 17.9431C9.9567 17.8285 9.84911 17.7322 9.72633 17.6599C7.46507 16.3291 5.94 13.8567 5.94 11.0009C5.94 8.4602 7.14818 6.22674 9.00914 4.8227C9.19321 4.68781 9.33088 4.49737 9.40263 4.27838C9.47438 4.0594 9.47657 3.82298 9.40887 3.60266C9.34118 3.38233 9.20706 3.18929 9.02551 3.0509C8.84396 2.91251 8.62421 2.8358 8.39742 2.83165ZM18.5699 2.83272C18.3461 2.84372 18.1312 2.92526 17.955 3.06606C17.7788 3.20686 17.6499 3.39994 17.5863 3.61856C17.5227 3.83718 17.5275 4.07052 17.6 4.28627C17.6724 4.50201 17.809 4.68948 17.9909 4.8227C19.8518 6.22674 21.06 8.4602 21.06 11.0009C21.06 13.8567 19.5349 16.3291 17.2737 17.6599C17.1509 17.7322 17.0433 17.8285 16.957 17.9431C16.8708 18.0577 16.8076 18.1885 16.771 18.328C16.7344 18.4675 16.7252 18.6129 16.7438 18.756C16.7625 18.8992 16.8087 19.0371 16.8797 19.1621C16.9508 19.287 17.0453 19.3965 17.158 19.4843C17.2706 19.5721 17.3991 19.6364 17.5362 19.6736C17.6732 19.7109 17.8162 19.7203 17.9568 19.7013C18.0974 19.6823 18.233 19.6353 18.3558 19.563C21.2602 17.8537 23.22 14.6551 23.22 11.0009C23.22 7.74818 21.6621 4.85691 19.2765 3.05705C19.0743 2.8999 18.824 2.82046 18.5699 2.83272ZM10.9709 5.68568C10.7643 5.68499 10.5619 5.74459 10.3876 5.85741C8.69422 6.92067 7.56 8.8318 7.56 11.0009C7.56 13.17 8.69422 15.0811 10.3876 16.1444C10.5083 16.2202 10.6425 16.2711 10.7826 16.2942C10.9226 16.3173 11.0657 16.312 11.2038 16.2788C11.3419 16.2456 11.4721 16.185 11.5872 16.1005C11.7022 16.016 11.7998 15.9093 11.8743 15.7865C11.9488 15.6636 11.9988 15.527 12.0215 15.3845C12.0441 15.242 12.039 15.0963 12.0063 14.9558C11.9736 14.8153 11.9141 14.6828 11.8311 14.5657C11.7481 14.4486 11.6432 14.3493 11.5225 14.2735C10.4413 13.5947 9.72 12.3929 9.72 11.0009C9.72 9.60887 10.4413 8.40708 11.5225 7.72825C11.7251 7.60492 11.8824 7.41741 11.9704 7.19443C12.0584 6.97145 12.0721 6.72528 12.0095 6.49359C11.947 6.2619 11.8115 6.05746 11.6239 5.91155C11.4364 5.76564 11.207 5.6863 10.9709 5.68568ZM15.9964 5.68568C15.7631 5.69328 15.5384 5.77764 15.3561 5.9261C15.1739 6.07456 15.0437 6.27914 14.9853 6.50918C14.9269 6.73923 14.9432 6.98235 15.032 7.20213C15.1207 7.4219 15.277 7.60649 15.4775 7.72825C16.5587 8.40708 17.28 9.60887 17.28 11.0009C17.28 12.3929 16.5587 13.5947 15.4775 14.2735C15.3568 14.3493 15.252 14.4486 15.1689 14.5657C15.0859 14.6828 15.0264 14.8153 14.9937 14.9558C14.961 15.0963 14.9559 15.242 14.9785 15.3845C15.0012 15.527 15.0512 15.6636 15.1257 15.7865C15.2002 15.9093 15.2978 16.016 15.4128 16.1005C15.5279 16.185 15.6581 16.2456 15.7962 16.2788C15.9343 16.312 16.0774 16.3173 16.2174 16.2942C16.3575 16.2711 16.4917 16.2202 16.6124 16.1444C18.3058 15.0811 19.44 13.17 19.44 11.0009C19.44 8.8318 18.3058 6.92067 16.6124 5.85741C16.4288 5.73829 16.2141 5.67843 15.9964 5.68568ZM13.5 9.35223C13.0703 9.35223 12.6583 9.52592 12.3545 9.83511C12.0507 10.1443 11.88 10.5636 11.88 11.0009C11.88 11.4381 12.0507 11.8575 12.3545 12.1667C12.6583 12.4759 13.0703 12.6495 13.5 12.6495C13.9297 12.6495 14.3417 12.4759 14.6455 12.1667C14.9493 11.8575 15.12 11.4381 15.12 11.0009C15.12 10.5636 14.9493 10.1443 14.6455 9.83511C14.3417 9.52592 13.9297 9.35223 13.5 9.35223Z" fill="#F12D12"/>
</svg>
