<svg id="icon-search" width="16" height="16" viewBox="0 0 16 16" fill="none" xmlns="http://www.w3.org/2000/svg">
<path d="M6.27452 0C2.81506 0 0 2.81506 0 6.27452C0 9.73397 2.81506 12.549 6.27452 12.549C7.52131 12.549 8.68154 12.1793 9.65932 11.5496L13.7181 15.6085C14.2402 16.1305 15.0867 16.1305 15.6085 15.6085C16.1305 15.0864 16.1305 14.2402 15.6085 13.7181L11.5496 9.65932C12.1793 8.68154 12.549 7.52131 12.549 6.27452C12.549 2.81506 9.73397 0 6.27452 0ZM6.27452 2.50981C8.35012 2.50981 10.0392 4.19891 10.0392 6.27452C10.0392 8.35012 8.35012 10.0392 6.27452 10.0392C4.19891 10.0392 2.50981 8.35012 2.50981 6.27452C2.50981 4.19891 4.19891 2.50981 6.27452 2.50981Z" fill="#ffffff"/>
</svg>
